<svg width="18" height="13" viewBox="0 0 18 13" fill="none" xmlns="http://www.w3.org/2000/svg">
<path d="M17.2917 3.90114C17.2917 3.3963 17.2917 3.14387 17.1918 3.02699C17.1052 2.92556 16.9753 2.87174 16.8423 2.88221C16.6891 2.89427 16.5106 3.07276 16.1536 3.42974L13.125 6.45833L16.1536 9.48693C16.5106 9.84391 16.6891 10.0224 16.8423 10.0345C16.9753 10.0449 17.1052 9.9911 17.1918 9.88968C17.2917 9.77279 17.2917 9.52037 17.2917 9.01552V3.90114Z" stroke="#FAFAFA" stroke-width="1.25" stroke-linecap="round" stroke-linejoin="round"/>
<path d="M0.625 4.625C0.625 3.22487 0.625 2.5248 0.897484 1.99002C1.13717 1.51962 1.51962 1.13717 1.99002 0.897484C2.5248 0.625 3.22487 0.625 4.625 0.625H9.125C10.5251 0.625 11.2252 0.625 11.76 0.897484C12.2304 1.13717 12.6128 1.51962 12.8525 1.99002C13.125 2.5248 13.125 3.22487 13.125 4.625V8.29167C13.125 9.6918 13.125 10.3919 12.8525 10.9266C12.6128 11.397 12.2304 11.7795 11.76 12.0192C11.2252 12.2917 10.5251 12.2917 9.125 12.2917H4.625C3.22487 12.2917 2.5248 12.2917 1.99002 12.0192C1.51962 11.7795 1.13717 11.397 0.897484 10.9266C0.625 10.3919 0.625 9.6918 0.625 8.29167V4.625Z" stroke="#FAFAFA" stroke-width="1.25" stroke-linecap="round" stroke-linejoin="round"/>
</svg>
