<svg width="13" height="13" viewBox="0 0 13 13" fill="none" xmlns="http://www.w3.org/2000/svg">
<path d="M10.5364 8.13636C10.4638 8.30088 10.4421 8.48338 10.4742 8.66032C10.5063 8.83726 10.5906 9.00054 10.7164 9.12909L10.7491 9.16182C10.8505 9.26313 10.931 9.38345 10.9859 9.51588C11.0408 9.64832 11.069 9.79027 11.069 9.93364C11.069 10.077 11.0408 10.219 10.9859 10.3514C10.931 10.4838 10.8505 10.6041 10.7491 10.7055C10.6478 10.8069 10.5275 10.8873 10.395 10.9422C10.2626 10.9971 10.1206 11.0254 9.97727 11.0254C9.83391 11.0254 9.69195 10.9971 9.55952 10.9422C9.42709 10.8873 9.30677 10.8069 9.20545 10.7055L9.17273 10.6727C9.04418 10.547 8.8809 10.4626 8.70396 10.4305C8.52702 10.3985 8.34452 10.4201 8.18 10.4927C8.01867 10.5619 7.88108 10.6767 7.78417 10.823C7.68725 10.9694 7.63525 11.1408 7.63455 11.3164V11.4091C7.63455 11.6984 7.51961 11.9759 7.31503 12.1805C7.11044 12.3851 6.83296 12.5 6.54364 12.5C6.25431 12.5 5.97683 12.3851 5.77225 12.1805C5.56766 11.9759 5.45273 11.6984 5.45273 11.4091V11.36C5.4485 11.1795 5.39007 11.0044 5.28501 10.8575C5.17995 10.7106 5.03313 10.5987 4.86364 10.5364C4.69912 10.4638 4.51662 10.4421 4.33968 10.4742C4.16274 10.5063 3.99946 10.5906 3.87091 10.7164L3.83818 10.7491C3.73687 10.8505 3.61655 10.931 3.48412 10.9859C3.35168 11.0408 3.20973 11.069 3.06636 11.069C2.923 11.069 2.78104 11.0408 2.64861 10.9859C2.51618 10.931 2.39586 10.8505 2.29455 10.7491C2.19312 10.6478 2.11265 10.5275 2.05775 10.395C2.00285 10.2626 1.9746 10.1206 1.9746 9.97727C1.9746 9.83391 2.00285 9.69195 2.05775 9.55952C2.11265 9.42709 2.19312 9.30677 2.29455 9.20545L2.32727 9.17273C2.45302 9.04418 2.53737 8.8809 2.56946 8.70396C2.60154 8.52702 2.57988 8.34452 2.50727 8.18C2.43813 8.01867 2.32332 7.88108 2.17698 7.78417C2.03064 7.68725 1.85916 7.63525 1.68364 7.63455H1.59091C1.30158 7.63455 1.02411 7.51961 0.81952 7.31503C0.614935 7.11044 0.5 6.83296 0.5 6.54364C0.5 6.25431 0.614935 5.97683 0.81952 5.77225C1.02411 5.56766 1.30158 5.45273 1.59091 5.45273H1.64C1.82054 5.4485 1.99564 5.39007 2.14253 5.28501C2.28941 5.17995 2.4013 5.03313 2.46364 4.86364C2.53624 4.69912 2.5579 4.51662 2.52582 4.33968C2.49374 4.16274 2.40938 3.99946 2.28364 3.87091L2.25091 3.83818C2.14948 3.73687 2.06902 3.61655 2.01412 3.48412C1.95922 3.35168 1.93096 3.20973 1.93096 3.06636C1.93096 2.923 1.95922 2.78104 2.01412 2.64861C2.06902 2.51618 2.14948 2.39586 2.25091 2.29455C2.35223 2.19312 2.47254 2.11265 2.60497 2.05775C2.73741 2.00285 2.87937 1.9746 3.02273 1.9746C3.16609 1.9746 3.30805 2.00285 3.44048 2.05775C3.57291 2.11265 3.69323 2.19312 3.79455 2.29455L3.82727 2.32727C3.95583 2.45302 4.1191 2.53737 4.29604 2.56946C4.47299 2.60154 4.65548 2.57988 4.82 2.50727H4.86364C5.02497 2.43813 5.16256 2.32332 5.25947 2.17698C5.35638 2.03064 5.40839 1.85916 5.40909 1.68364V1.59091C5.40909 1.30158 5.52403 1.02411 5.72861 0.81952C5.9332 0.614935 6.21067 0.5 6.5 0.5C6.78933 0.5 7.0668 0.614935 7.27139 0.81952C7.47597 1.02411 7.59091 1.30158 7.59091 1.59091V1.64C7.59161 1.81552 7.64362 1.987 7.74053 2.13335C7.83745 2.27969 7.97504 2.39449 8.13636 2.46364C8.30088 2.53624 8.48338 2.5579 8.66032 2.52582C8.83726 2.49374 9.00054 2.40938 9.12909 2.28364L9.16182 2.25091C9.26313 2.14948 9.38345 2.06902 9.51588 2.01412C9.64832 1.95922 9.79027 1.93096 9.93364 1.93096C10.077 1.93096 10.219 1.95922 10.3514 2.01412C10.4838 2.06902 10.6041 2.14948 10.7055 2.25091C10.8069 2.35223 10.8873 2.47254 10.9422 2.60497C10.9971 2.73741 11.0254 2.87937 11.0254 3.02273C11.0254 3.16609 10.9971 3.30805 10.9422 3.44048C10.8873 3.57291 10.8069 3.69323 10.7055 3.79455L10.6727 3.82727C10.547 3.95583 10.4626 4.1191 10.4305 4.29604C10.3985 4.47299 10.4201 4.65548 10.4927 4.82V4.86364C10.5619 5.02497 10.6767 5.16256 10.823 5.25947C10.9694 5.35638 11.1408 5.40839 11.3164 5.40909H11.4091C11.6984 5.40909 11.9759 5.52403 12.1805 5.72861C12.3851 5.9332 12.5 6.21067 12.5 6.5C12.5 6.78933 12.3851 7.0668 12.1805 7.27139C11.9759 7.47597 11.6984 7.59091 11.4091 7.59091H11.36C11.1845 7.59161 11.013 7.64362 10.8667 7.74053C10.7203 7.83745 10.6055 7.97504 10.5364 8.13636Z" stroke="#FAFAFA" stroke-linecap="round" stroke-linejoin="round"/>
<path d="M6.5 8.3C7.49411 8.3 8.3 7.49411 8.3 6.5C8.3 5.50589 7.49411 4.7 6.5 4.7C5.50589 4.7 4.7 5.50589 4.7 6.5C4.7 7.49411 5.50589 8.3 6.5 8.3Z" stroke="#FAFAFA" stroke-linecap="round" stroke-linejoin="round"/>
</svg>
