<svg width="502" height="120" viewBox="0 0 502 120" fill="none" xmlns="http://www.w3.org/2000/svg">
<g clip-path="url(#clip0_1357_45)">
<path d="M383.094 54.912C383.094 54.912 373.8 54.912 370.807 54.912C367.815 54.912 365.61 55.699 363.247 58.3748C360.886 61.0503 345.921 78.2063 345.921 78.2063V54.912H328.91V114.564C328.91 116.453 330.485 118.027 332.375 118.027H345.921V89.3814C345.921 89.3814 358.679 109.213 360.886 112.676C363.09 116.138 365.295 117.87 370.492 117.87C375.534 117.87 384.353 117.87 384.353 117.87L360.727 80.7247L383.094 54.912ZM311.428 54.912C311.428 54.912 274.728 54.912 273.625 54.912V112.204C273.625 115.351 276.776 117.87 279.925 117.87H311.269C313.16 117.87 314.735 116.296 314.735 114.407V106.223H293C291.58 106.223 290.478 105.121 290.478 103.704V90.483H309.852V78.9934H290.478V66.4019H314.735V58.3748C314.735 56.4861 313.318 54.912 311.428 54.912ZM430.659 54.912C430.659 54.912 393.962 54.912 392.859 54.912V112.204C392.859 115.351 396.008 117.87 399.159 117.87H430.503C432.393 117.87 433.969 116.296 433.969 114.407V106.223H412.231C410.814 106.223 409.712 105.121 409.712 103.704V90.483H429.086V78.9934H409.712V66.4019H433.969V58.3748C434.125 56.4861 432.55 54.912 430.659 54.912ZM190.304 54.912H173.293V114.564C173.293 116.453 174.868 118.027 176.758 118.027H190.304V54.912ZM154.549 54.912C154.549 54.912 117.85 54.912 116.748 54.912V112.204C116.748 115.509 119.898 117.87 123.048 117.87H154.392C156.282 117.87 157.857 116.296 157.857 114.407V106.223H136.279C134.861 106.223 133.758 105.121 133.758 103.704V90.483H153.132V78.9934H133.758V66.4019H158.015V58.3748C158.015 56.4861 156.439 54.912 154.549 54.912ZM99.7367 54.912H82.7259V78.9934H67.9202V54.912H48.2317V57.4303C48.2317 57.4303 50.9094 58.3748 50.9094 61.68V118.027H67.9202V90.6405H82.7259V118.027H99.7367V54.912ZM256.456 54.912V114.564C256.456 116.453 254.883 118.027 252.993 118.027H242.596L219.758 81.9838C219.758 81.9838 220.23 84.9743 220.23 88.7518C220.23 92.5292 220.23 118.027 220.23 118.027H207.63V55.0694C207.63 55.0694 209.677 55.0694 215.82 55.0694C220.073 55.0694 223.065 56.8009 225.27 60.2635C227.161 63.2539 244.486 90.483 244.486 90.483C244.486 90.483 243.857 88.5943 243.857 83.715C243.857 78.6786 243.857 55.2268 243.857 55.2268H256.456V54.912ZM499.965 54.912V57.4303C499.965 57.4303 497.287 58.5322 497.287 61.68V114.564C497.287 116.453 495.711 118.027 493.98 118.027H483.583L460.745 81.9838C460.745 81.9838 461.216 84.9743 461.216 88.7518C461.216 92.5292 461.216 118.027 461.216 118.027H448.617V55.0694C448.617 55.0694 450.663 55.0694 456.806 55.0694C461.06 55.0694 464.052 56.8009 466.257 60.2635C468.147 63.2539 485.473 90.483 485.473 90.483C485.473 90.483 484.844 88.5943 484.844 83.715C484.844 78.6786 484.844 55.2268 484.844 55.2268H499.965V54.912Z" fill="white"/>
<path d="M16.5725 77.8916C15.785 78.5212 14.6824 77.7342 14.9974 76.7899C15.47 75.3732 23.9755 49.0885 23.9755 49.0885L0.506707 31.9327C-0.43834 31.3031 0.034184 30.044 1.13674 30.044C2.55432 30.044 30.1182 30.044 30.1182 30.044C30.1182 30.044 38.6236 3.75917 39.0962 2.50002C39.4111 1.55566 40.8288 1.55566 41.1437 2.50002C41.6163 3.91656 50.1216 30.044 50.1216 30.044C50.1216 30.044 77.6855 30.044 79.1032 30.044C80.2056 30.044 80.5207 31.3031 79.7332 31.9327L65.715 42.1633H49.1766L43.9788 26.4238L38.7811 42.1633H22.4003L35.7884 51.9217L30.5907 67.661C30.5907 67.661 17.5176 77.2622 16.5725 77.8916Z" fill="#E30613"/>
</g>
<defs>
<clipPath id="clip0_1357_45">
<rect width="501.509" height="120" fill="white"/>
</clipPath>
</defs>
</svg>
