<svg width="13" height="13" viewBox="0 0 13 13" fill="none" xmlns="http://www.w3.org/2000/svg">
<path d="M7.15493 0.818465C6.92071 0.643425 6.80361 0.555906 6.67429 0.522263C6.56019 0.492579 6.43993 0.492579 6.32583 0.522263C6.19652 0.555906 6.07941 0.643425 5.84519 0.818464L1.32365 4.19758C1.02141 4.42346 0.870286 4.5364 0.761412 4.67784C0.664971 4.80313 0.593129 4.94428 0.549413 5.09434C0.500061 5.26375 0.500061 5.44771 0.500061 5.81563V10.4502C0.500061 11.1677 0.500061 11.5264 0.645386 11.8005C0.773217 12.0415 0.977191 12.2375 1.22807 12.3604C1.51329 12.5 1.88666 12.5 2.63339 12.5H3.96673C4.15341 12.5 4.24675 12.5 4.31806 12.4651C4.38078 12.4344 4.43177 12.3854 4.46373 12.3251C4.50006 12.2566 4.50006 12.1669 4.50006 11.9875V7.75974C4.50006 7.40098 4.50006 7.2216 4.57272 7.08458C4.63664 6.96404 4.73863 6.86605 4.86407 6.80463C5.00668 6.73482 5.19336 6.73482 5.56673 6.73482H7.43339C7.80676 6.73482 7.99345 6.73482 8.13606 6.80463C8.2615 6.86605 8.36348 6.96404 8.4274 7.08458C8.50006 7.2216 8.50006 7.40098 8.50006 7.75974V11.9875C8.50006 12.1669 8.50006 12.2566 8.53639 12.3251C8.56835 12.3854 8.61934 12.4344 8.68206 12.4651C8.75337 12.5 8.84671 12.5 9.03339 12.5H10.3667C11.1135 12.5 11.4868 12.5 11.772 12.3604C12.0229 12.2375 12.2269 12.0415 12.3547 11.8005C12.5001 11.5264 12.5001 11.1677 12.5001 10.4502V5.81563C12.5001 5.44771 12.5001 5.26375 12.4507 5.09434C12.407 4.94428 12.3352 4.80313 12.2387 4.67784C12.1298 4.5364 11.9787 4.42346 11.6765 4.19758L7.15493 0.818465Z" stroke="#FAFAFA" stroke-linecap="round" stroke-linejoin="round"/>
</svg>
