<svg width="15" height="14" viewBox="0 0 15 14" fill="none" xmlns="http://www.w3.org/2000/svg">
<path d="M9.99526 2.38558C11.5574 3.94768 11.5574 6.48034 9.99526 8.04243M4.33839 8.04243C2.77629 6.48034 2.77629 3.94768 4.33839 2.38558M2.45262 9.92809C-0.150874 7.3246 -0.150874 3.1035 2.45262 0.5M11.881 0.5C14.4845 3.1035 14.4845 7.3246 11.881 9.92809M7.16681 6.54736C7.90319 6.54736 8.50015 5.95041 8.50015 5.21403C8.50015 4.47765 7.90319 3.8807 7.16681 3.8807C6.43043 3.8807 5.83348 4.47765 5.83348 5.21403C5.83348 5.95041 6.43043 6.54736 7.16681 6.54736ZM7.16681 6.54736V12.5474" stroke="#FAFAFA" stroke-linecap="round" stroke-linejoin="round"/>
</svg>
