<svg width="48" height="48" viewBox="0 0 48 48" fill="none" xmlns="http://www.w3.org/2000/svg">
<g opacity="0.6">
<path d="M25.4035 9.0995C27.5001 9.12894 28.955 10.5563 29.006 12.6259V13.2782C29.0521 14.3797 29.8684 14.8443 30.8683 14.3358C31.1111 14.2137 31.3423 14.067 31.5851 13.9432C33.278 13.0811 35.1681 13.5701 36.173 15.164C36.7378 16.0586 37.2705 16.9779 37.7697 17.91C38.6889 19.626 38.1843 21.4801 36.549 22.5263C36.3848 22.6289 36.2209 22.7172 36.0568 22.8134C34.8335 23.5304 34.8468 24.472 36.0929 25.1972C38.3261 26.5009 38.8149 28.3333 37.5177 30.5497C37.0925 31.2764 36.6853 32.0163 36.2404 32.7284C35.1731 34.446 33.2668 34.95 31.4787 33.9999C31.3342 33.9233 31.1977 33.8369 31.0548 33.7538C29.8447 33.0824 29.0286 33.5486 29.0089 34.9208C28.971 37.6014 27.651 38.9052 24.9533 38.8954C23.9172 38.8954 22.8626 38.9519 21.8478 38.789C20.1372 38.515 19.0832 37.202 19.0158 35.4911C19.0043 35.2189 19.0158 34.9462 19.0158 34.6757C18.9697 33.6345 18.1452 33.1732 17.1896 33.6327C16.628 33.9016 16.0715 34.2227 15.4738 34.371C14.1963 34.6969 12.9941 34.3349 12.2404 33.3065C11.3621 32.1121 10.7007 30.7579 9.98647 29.4511C9.80422 29.1561 9.82176 28.77 9.78237 28.5712C9.81193 27.2235 10.3081 26.2752 11.2882 25.5809C11.4655 25.4555 11.6558 25.346 11.8429 25.2352C13.196 24.4481 13.2091 23.5517 11.8791 22.7792C11.6919 22.67 11.503 22.5586 11.3224 22.4364C9.88438 21.4586 9.35252 19.6664 10.1339 18.1298C10.6763 17.0644 11.2797 16.0304 11.9406 15.0331C12.8437 13.6562 14.5117 13.1785 16.0568 13.7782C16.3094 13.8809 16.5551 14.0006 16.7912 14.1366C18.2557 14.9578 18.9947 14.5371 19.0089 12.8739C19.027 10.4913 20.4398 9.10602 22.8585 9.0995C23.7073 9.0995 24.5547 9.08972 25.4035 9.0995ZM25.3986 11.3661C24.6055 11.3449 23.8118 11.3661 23.0187 11.3661C21.6462 11.3661 21.315 11.6923 21.3068 13.0204C21.2854 16.177 18.579 17.7467 15.8156 16.2069C15.4921 16.0325 15.1435 15.8827 14.6789 15.6561C14.3505 15.9282 13.9729 16.1448 13.7316 16.4706C13.3737 16.9448 13.1341 17.5038 12.8107 18.0057C11.599 19.8749 12.0223 20.2593 13.5246 21.1425C15.7003 22.4202 15.6742 25.4799 13.5724 26.8651C13.3229 27.028 13.0537 27.1681 12.8009 27.3261C12.0439 27.8019 11.8874 28.3417 12.3078 29.119C12.5901 29.6436 12.9317 30.1404 13.2042 30.6698C14.0548 32.3174 14.5186 32.5884 16.2345 31.6024C18.4626 30.3218 21.1274 31.8891 21.2999 34.4442C21.3197 34.7424 21.2995 35.0425 21.3126 35.3407C21.3389 36.1556 21.7517 36.6008 22.5744 36.622C23.5314 36.6464 24.4901 36.6464 25.4455 36.622C26.2664 36.5991 26.6789 36.1542 26.7101 35.3329C26.72 35.0348 26.7101 34.7349 26.7101 34.4384C26.7988 32.5104 28.4509 31.0029 30.382 31.2196C31.111 31.3028 31.8204 31.6724 32.505 31.9852C33.326 32.3601 33.8338 32.2717 34.3117 31.496C34.7893 30.7205 35.262 29.9124 35.7101 29.1044C36.1321 28.3434 35.9682 27.8003 35.2082 27.3114C34.9554 27.1485 34.6793 27.0228 34.4347 26.8534C33.2854 26.0533 32.7596 24.9615 32.9171 23.5634C33.0682 22.2172 33.8846 21.3841 35.0324 20.7665C36.0305 20.2288 36.1631 19.6699 35.6066 18.702C35.1731 17.9492 34.7479 17.1896 34.2931 16.453C33.8383 15.7164 33.3075 15.6055 32.5539 15.9999C32.265 16.1514 31.9889 16.3256 31.6935 16.4706C31.2136 16.7064 30.685 16.8282 30.1496 16.8261C29.6139 16.8238 29.0856 16.6978 28.6076 16.4579C28.1295 16.218 27.714 15.8702 27.3947 15.4432C27.0755 15.0164 26.8608 14.5214 26.7677 13.9979C26.7175 13.5654 26.699 13.1295 26.7121 12.6942C26.6824 11.8275 26.2653 11.3906 25.3986 11.3661ZM24.0226 19.039C25.0099 19.0429 25.9741 19.3365 26.7931 19.8837C27.6121 20.4308 28.2489 21.2069 28.6242 22.1132C28.9994 23.0196 29.0964 24.0168 28.9015 24.9774C28.7066 25.9379 28.2287 26.8191 27.5294 27.5106C26.83 28.2023 25.9395 28.6732 24.9708 28.8632C24.0024 29.053 22.9988 28.9536 22.0871 28.578C21.1754 28.2024 20.3961 27.5675 19.8478 26.7528C19.2994 25.938 19.0064 24.9798 19.006 23.9999C19.0108 22.6826 19.5414 21.4209 20.4816 20.4911C21.4218 19.5613 22.6953 19.0389 24.0226 19.039ZM24.0041 21.3202C23.4708 21.3228 22.9501 21.4823 22.508 21.7782C22.0657 22.0742 21.7219 22.4944 21.5197 22.9843C21.3175 23.4741 21.2655 24.0124 21.3712 24.5311C21.477 25.0499 21.7354 25.526 22.1134 25.8993C22.4915 26.2725 22.973 26.5266 23.4962 26.6288C24.0196 26.7309 24.5624 26.6769 25.0548 26.4735C25.5473 26.2701 25.968 25.9258 26.2638 25.4852C26.5595 25.0448 26.7173 24.5272 26.7169 23.9979C26.7182 23.6448 26.6488 23.295 26.5128 22.9686C26.3769 22.6423 26.1771 22.3457 25.9249 22.0966C25.6727 21.8474 25.3727 21.6499 25.0431 21.5165C24.7135 21.3831 24.36 21.3162 24.0041 21.3192V21.3202Z" fill="#FAFAFA"/>
</g>
</svg>
