<svg width="343" height="48" viewBox="0 0 343 48" fill="none" xmlns="http://www.w3.org/2000/svg">
<path d="M0.663996 22.9121V0.352108H10.072C12.504 0.352108 14.3707 0.864108 15.672 1.88811C16.9947 2.91211 17.656 4.35211 17.656 6.20811C17.656 7.59478 17.24 8.75744 16.408 9.69611C15.576 10.6348 14.4347 11.2641 12.984 11.5841V11.1041C14.648 11.3174 15.9387 11.9041 16.856 12.8641C17.7733 13.8241 18.232 15.0934 18.232 16.6721C18.232 18.6774 17.5493 20.2241 16.184 21.3121C14.84 22.3788 12.9413 22.9121 10.488 22.9121H0.663996ZM3.896 20.3201H10.136C11.6507 20.3201 12.8347 20.0321 13.688 19.4561C14.5627 18.8801 15 17.9094 15 16.5441C15 15.1788 14.5627 14.2081 13.688 13.6321C12.8347 13.0561 11.6507 12.7681 10.136 12.7681H3.896V20.3201ZM3.896 10.2081H9.56C11.1813 10.2081 12.3973 9.89878 13.208 9.28011C14.0187 8.66144 14.424 7.75478 14.424 6.56011C14.424 5.36544 14.0187 4.45878 13.208 3.84011C12.3973 3.22144 11.1813 2.91211 9.56 2.91211H3.896V10.2081ZM21.1622 11.6161C21.1622 9.24811 21.5782 7.20011 22.4102 5.47211C23.2422 3.74411 24.4476 2.41077 26.0262 1.47211C27.6262 0.533442 29.5249 0.0641079 31.7222 0.0641079C33.8982 0.0641079 35.7756 0.533442 37.3542 1.47211C38.9329 2.41077 40.1489 3.74411 41.0022 5.47211C41.8769 7.20011 42.3142 9.23744 42.3142 11.5841C42.3142 13.9521 41.8769 16.0108 41.0022 17.7601C40.1489 19.4881 38.9222 20.8321 37.3222 21.7921C35.7436 22.7308 33.8769 23.2001 31.7222 23.2001C29.5249 23.2001 27.6369 22.7308 26.0582 21.7921C24.4796 20.8321 23.2636 19.4881 22.4102 17.7601C21.5782 16.0108 21.1622 13.9628 21.1622 11.6161ZM24.6502 11.6161C24.6502 14.3468 25.2476 16.4801 26.4422 18.0161C27.6369 19.5521 29.3969 20.3201 31.7222 20.3201C33.9836 20.3201 35.7329 19.5628 36.9702 18.0481C38.2076 16.5121 38.8262 14.3681 38.8262 11.6161C38.8262 8.86411 38.2076 6.73078 36.9702 5.21611C35.7542 3.70144 34.0049 2.94411 31.7222 2.94411C29.3969 2.94411 27.6369 3.70144 26.4422 5.21611C25.2476 6.73078 24.6502 8.86411 24.6502 11.6161ZM46.2277 22.9121V0.352108H55.7637C58.1744 0.352108 60.0411 0.928108 61.3637 2.08011C62.6864 3.21077 63.3477 4.80011 63.3477 6.84811C63.3477 8.19211 63.0491 9.34411 62.4517 10.3041C61.8544 11.2641 61.0117 12.0001 59.9237 12.5121C58.8357 13.0028 57.5557 13.2481 56.0837 13.2481L56.5957 12.7361H57.4597C58.3344 12.7361 59.1131 12.9601 59.7957 13.4081C60.4997 13.8561 61.0757 14.5708 61.5237 15.5521L64.7557 22.9121H61.1077L57.9077 15.5201C57.5877 14.6454 57.0864 14.0801 56.4037 13.8241C55.7424 13.5681 54.9211 13.4401 53.9397 13.4401H49.5557V22.9121H46.2277ZM49.5557 10.9121H55.2197C56.8197 10.9121 58.0251 10.5708 58.8357 9.88811C59.6677 9.20544 60.0837 8.22411 60.0837 6.94411C60.0837 5.64278 59.6677 4.66144 58.8357 4.00011C58.0251 3.33877 56.8197 3.00811 55.2197 3.00811H49.5557V10.9121ZM67.9002 22.9121V0.352108H70.4602L84.3162 18.5281H83.5162V0.352108H86.6202V22.9121H84.0922L70.2682 4.73611H71.0042V22.9121H67.9002ZM99.1515 22.9121V0.352108H102.479V22.9121H99.1515ZM107.136 22.9121V0.352108H109.696L123.552 18.5281H122.753V0.352108H125.857V22.9121H123.329L109.504 4.73611H110.24V22.9121H107.136ZM135.028 22.9121L145.588 0.352108H150.388L161.012 22.9121H155.092L152.372 16.7041L154.644 18.3361H141.396L143.636 16.7041L140.948 22.9121H135.028ZM147.956 6.43211L144.212 15.3601L143.316 13.8561H152.692L151.892 15.3601L148.116 6.43211H147.956ZM161.862 22.9121V0.352108H166.982L174.374 16.8961H173.318L180.678 0.352108H185.83V22.9121H180.486V9.08811H181.862L175.462 22.9121H172.134L165.702 9.08811H167.174V22.9121H161.862ZM197.887 23.2641C196.073 23.2641 194.345 23.0508 192.703 22.6241C191.081 22.1761 189.716 21.5788 188.607 20.8321L190.271 16.2561C190.975 16.7041 191.743 17.0881 192.575 17.4081C193.407 17.7281 194.271 17.9841 195.167 18.1761C196.084 18.3468 197.012 18.4321 197.951 18.4321C199.359 18.4321 200.329 18.2508 200.863 17.8881C201.417 17.5254 201.695 17.0561 201.695 16.4801C201.695 15.9681 201.513 15.5734 201.151 15.2961C200.788 14.9974 200.105 14.7414 199.103 14.5281L195.199 13.7281C193.129 13.3014 191.583 12.5654 190.559 11.5201C189.535 10.4534 189.023 9.06678 189.023 7.36011C189.023 5.86677 189.417 4.57611 190.207 3.48811C191.017 2.37877 192.148 1.52544 193.599 0.928108C195.049 0.309442 196.745 0.000108719 198.687 0.000108719C200.287 0.000108719 201.791 0.224108 203.199 0.672108C204.607 1.09878 205.759 1.69611 206.655 2.46411L204.991 6.75211C204.137 6.13344 203.177 5.66411 202.111 5.34411C201.044 5.00278 199.86 4.83211 198.559 4.83211C197.321 4.83211 196.383 5.02411 195.743 5.40811C195.124 5.77077 194.815 6.29344 194.815 6.97611C194.815 7.44544 194.996 7.85078 195.359 8.19211C195.743 8.51211 196.436 8.77878 197.439 8.99211L201.279 9.76011C203.348 10.1654 204.895 10.8908 205.919 11.9361C206.964 12.9814 207.487 14.3468 207.487 16.0321C207.487 17.4828 207.081 18.7521 206.271 19.8401C205.481 20.9281 204.372 21.7708 202.943 22.3681C201.513 22.9654 199.828 23.2641 197.887 23.2641ZM214.919 22.9121V5.12011H208.071V0.352108H227.687V5.12011H220.839V22.9121H214.919ZM229.533 22.9121V0.352108H245.725V4.86411H235.197V9.18411H244.957V13.7281H235.197V18.3681H245.725V22.9121H229.533ZM248.174 22.9121V0.352108H258.83C261.433 0.352108 263.438 0.970775 264.846 2.20811C266.276 3.44544 266.99 5.16277 266.99 7.36011C266.99 8.83211 266.67 10.0908 266.03 11.1361C265.39 12.1601 264.462 12.9601 263.246 13.5361C262.03 14.0908 260.58 14.3681 258.894 14.3681L259.182 13.5681H260.782C261.721 13.5681 262.553 13.8241 263.278 14.3361C264.004 14.8481 264.601 15.5628 265.07 16.4801L268.494 22.9121H262.03L258.35 15.7121C258.116 15.2428 257.764 14.9228 257.294 14.7521C256.846 14.5814 256.334 14.4961 255.758 14.4961H254.094V22.9121H248.174ZM254.094 10.3041H257.806C258.958 10.3041 259.833 10.0801 260.43 9.63211C261.028 9.16278 261.326 8.46944 261.326 7.55211C261.326 6.65611 261.028 5.98411 260.43 5.53611C259.833 5.08811 258.958 4.86411 257.806 4.86411H254.094V10.3041ZM270.347 22.9121V0.352108H279.435C282.101 0.352108 284.352 0.810774 286.187 1.72811C288.021 2.62411 289.408 3.91478 290.347 5.60011C291.307 7.26411 291.787 9.26944 291.787 11.6161C291.787 13.9414 291.307 15.9468 290.347 17.6321C289.408 19.3174 288.021 20.6188 286.187 21.5361C284.352 22.4534 282.101 22.9121 279.435 22.9121H270.347ZM276.267 18.1121H279.051C281.376 18.1121 283.093 17.5788 284.203 16.5121C285.333 15.4454 285.899 13.8134 285.899 11.6161C285.899 9.39744 285.333 7.76544 284.203 6.72011C283.093 5.65344 281.376 5.12011 279.051 5.12011H276.267V18.1121ZM291.36 22.9121L301.92 0.352108H306.72L317.344 22.9121H311.424L308.704 16.7041L310.976 18.3361H297.728L299.968 16.7041L297.28 22.9121H291.36ZM304.288 6.43211L300.544 15.3601L299.648 13.8561H309.024L308.224 15.3601L304.448 6.43211H304.288ZM318.194 22.9121V0.352108H323.314L330.706 16.8961H329.65L337.01 0.352108H342.162V22.9121H336.818V9.08811H338.194L331.794 22.9121H328.466L322.034 9.08811H323.506V22.9121H318.194ZM-4.29153e-06 46.9121V29.9921H7.152C8.96 29.9921 10.36 30.4241 11.352 31.2881C12.344 32.1361 12.84 33.3281 12.84 34.8641C12.84 35.8721 12.616 36.7361 12.168 37.4561C11.72 38.1761 11.088 38.7281 10.272 39.1121C9.456 39.4801 8.496 39.6641 7.392 39.6641L7.776 39.2801H8.424C9.08 39.2801 9.664 39.4481 10.176 39.7841C10.704 40.1201 11.136 40.6561 11.472 41.3921L13.896 46.9121H11.16L8.76 41.3681C8.52 40.7121 8.144 40.2881 7.632 40.0961C7.136 39.9041 6.52 39.8081 5.784 39.8081H2.496V46.9121H-4.29153e-06ZM2.496 37.9121H6.744C7.944 37.9121 8.848 37.6561 9.456 37.1441C10.08 36.6321 10.392 35.8961 10.392 34.9361C10.392 33.9601 10.08 33.2241 9.456 32.7281C8.848 32.2321 7.944 31.9841 6.744 31.9841H2.496V37.9121ZM14.2211 46.9121L21.7571 29.9921H23.8931L31.5491 46.9121H28.9811L26.8931 42.1121L27.9491 42.7841H17.7011L18.8291 42.1121L16.7411 46.9121H14.2211ZM22.7891 32.7281L19.1411 41.3441L18.5651 40.7921H27.0851L26.6051 41.3441L22.8851 32.7281H22.7891ZM33.3056 46.9121V29.9921H35.8016V46.9121H33.3056ZM45.0064 47.1281C43.6464 47.1281 42.4144 46.9601 41.3104 46.6241C40.2064 46.2721 39.2464 45.7761 38.4304 45.1361L39.2704 43.1681C39.8144 43.5841 40.3744 43.9281 40.9504 44.2001C41.5424 44.4721 42.1664 44.6801 42.8224 44.8241C43.4944 44.9521 44.2224 45.0161 45.0064 45.0161C46.3504 45.0161 47.3344 44.7761 47.9584 44.2961C48.5984 43.8161 48.9184 43.1841 48.9184 42.4001C48.9184 41.7281 48.6944 41.2081 48.2464 40.8401C47.8144 40.4721 47.0464 40.1761 45.9424 39.9521L43.3264 39.4241C41.7744 39.1041 40.6144 38.5841 39.8464 37.8641C39.0944 37.1281 38.7184 36.1281 38.7184 34.8641C38.7184 33.8401 38.9904 32.9441 39.5344 32.1761C40.0784 31.4081 40.8304 30.8161 41.7904 30.4001C42.7664 29.9841 43.9024 29.7761 45.1984 29.7761C46.3984 29.7761 47.5024 29.9521 48.5104 30.3041C49.5184 30.6401 50.3664 31.1441 51.0544 31.8161L50.2384 33.7121C49.5184 33.0881 48.7504 32.6321 47.9344 32.3441C47.1184 32.0401 46.1904 31.8881 45.1504 31.8881C43.9184 31.8881 42.9504 32.1441 42.2464 32.6561C41.5584 33.1681 41.2144 33.8641 41.2144 34.7441C41.2144 35.4481 41.4304 36.0001 41.8624 36.4001C42.3104 36.8001 43.0464 37.1041 44.0704 37.3121L46.6864 37.8161C48.3024 38.1521 49.4944 38.6721 50.2624 39.3761C51.0304 40.0641 51.4144 41.0161 51.4144 42.2321C51.4144 43.2081 51.1504 44.0641 50.6224 44.8001C50.1104 45.5361 49.3744 46.1121 48.4144 46.5281C47.4544 46.9281 46.3184 47.1281 45.0064 47.1281ZM54.0019 46.9121V29.9921H65.0899V31.9841H56.4259V37.3121H64.5379V39.3281H56.4259V44.8961H65.0899V46.9121H54.0019ZM67.7016 46.9121V29.9921H73.5576C75.4616 29.9921 77.0696 30.3201 78.3816 30.9761C79.7096 31.6321 80.7096 32.5921 81.3816 33.8561C82.0696 35.1041 82.4136 36.6321 82.4136 38.4401C82.4136 40.2321 82.0696 41.7601 81.3816 43.0241C80.7096 44.2881 79.7096 45.2561 78.3816 45.9281C77.0696 46.5841 75.4616 46.9121 73.5576 46.9121H67.7016ZM70.1976 44.8241H73.4136C75.5896 44.8241 77.2056 44.2961 78.2616 43.2401C79.3336 42.1841 79.8696 40.5841 79.8696 38.4401C79.8696 36.2961 79.3336 34.7041 78.2616 33.6641C77.2056 32.6081 75.5896 32.0801 73.4136 32.0801H70.1976V44.8241ZM91.2337 46.9121V29.9921H98.2897C100.114 29.9921 101.514 30.3761 102.49 31.1441C103.482 31.9121 103.978 32.9921 103.978 34.3841C103.978 35.4241 103.666 36.2961 103.042 37.0001C102.418 37.7041 101.562 38.1761 100.474 38.4161V38.0561C101.722 38.2161 102.69 38.6561 103.378 39.3761C104.066 40.0961 104.41 41.0481 104.41 42.2321C104.41 43.7361 103.898 44.8961 102.874 45.7121C101.866 46.5121 100.442 46.9121 98.6017 46.9121H91.2337ZM93.6577 44.9681H98.3377C99.4737 44.9681 100.362 44.7521 101.002 44.3201C101.658 43.8881 101.986 43.1601 101.986 42.1361C101.986 41.1121 101.658 40.3841 101.002 39.9521C100.362 39.5201 99.4737 39.3041 98.3377 39.3041H93.6577V44.9681ZM93.6577 37.3841H97.9057C99.1217 37.3841 100.034 37.1521 100.642 36.6881C101.25 36.2241 101.554 35.5441 101.554 34.6481C101.554 33.7521 101.25 33.0721 100.642 32.6081C100.034 32.1441 99.1217 31.9121 97.9057 31.9121H93.6577V37.3841ZM111.007 46.9121V38.9681L111.559 40.5521L104.431 29.9921H107.311L112.615 38.0801H112.015L117.319 29.9921H120.103L112.999 40.5521L113.503 38.9681V46.9121H111.007ZM131.162 46.9121V32.0801H125.378V29.9921H139.442V32.0801H133.658V46.9121H131.162ZM141.298 46.9121V29.9921H143.794V37.2881H153.298V29.9921H155.794V46.9121H153.298V39.3761H143.794V46.9121H141.298ZM159.287 46.9121V29.9921H170.375V31.9841H161.711V37.3121H169.823V39.3281H161.711V44.8961H170.375V46.9121H159.287ZM183.561 46.9121L177.633 29.9921H180.225L185.145 44.6081H184.257L189.465 29.9921H191.361L196.257 44.6081H195.441L200.529 29.9921H202.977L197.001 46.9121H194.865L190.113 32.9921H190.617L185.673 46.9121H183.561ZM204.24 38.4401C204.24 36.6641 204.552 35.1281 205.176 33.8321C205.8 32.5361 206.704 31.5361 207.888 30.8321C209.088 30.1281 210.512 29.7761 212.16 29.7761C213.792 29.7761 215.2 30.1281 216.384 30.8321C217.568 31.5361 218.48 32.5361 219.12 33.8321C219.776 35.1281 220.104 36.6561 220.104 38.4161C220.104 40.1921 219.776 41.7361 219.12 43.0481C218.48 44.3441 217.56 45.3521 216.36 46.0721C215.176 46.7761 213.776 47.1281 212.16 47.1281C210.512 47.1281 209.096 46.7761 207.912 46.0721C206.728 45.3521 205.816 44.3441 205.176 43.0481C204.552 41.7361 204.24 40.2001 204.24 38.4401ZM206.856 38.4401C206.856 40.4881 207.304 42.0881 208.2 43.2401C209.096 44.3921 210.416 44.9681 212.16 44.9681C213.856 44.9681 215.168 44.4001 216.096 43.2641C217.024 42.1121 217.488 40.5041 217.488 38.4401C217.488 36.3761 217.024 34.7761 216.096 33.6401C215.184 32.5041 213.872 31.9361 212.16 31.9361C210.416 31.9361 209.096 32.5041 208.2 33.6401C207.304 34.7761 206.856 36.3761 206.856 38.4401ZM223.039 46.9121V29.9921H230.191C231.999 29.9921 233.399 30.4241 234.391 31.2881C235.383 32.1361 235.879 33.3281 235.879 34.8641C235.879 35.8721 235.655 36.7361 235.207 37.4561C234.759 38.1761 234.127 38.7281 233.311 39.1121C232.495 39.4801 231.535 39.6641 230.431 39.6641L230.815 39.2801H231.463C232.119 39.2801 232.703 39.4481 233.215 39.7841C233.743 40.1201 234.175 40.6561 234.511 41.3921L236.935 46.9121H234.199L231.799 41.3681C231.559 40.7121 231.183 40.2881 230.671 40.0961C230.175 39.9041 229.559 39.8081 228.823 39.8081H225.535V46.9121H223.039ZM225.535 37.9121H229.783C230.983 37.9121 231.887 37.6561 232.495 37.1441C233.119 36.6321 233.431 35.8961 233.431 34.9361C233.431 33.9601 233.119 33.2241 232.495 32.7281C231.887 32.2321 230.983 31.9841 229.783 31.9841H225.535V37.9121ZM239.293 46.9121V29.9921H245.149C247.053 29.9921 248.661 30.3201 249.973 30.9761C251.301 31.6321 252.301 32.5921 252.973 33.8561C253.661 35.1041 254.005 36.6321 254.005 38.4401C254.005 40.2321 253.661 41.7601 252.973 43.0241C252.301 44.2881 251.301 45.2561 249.973 45.9281C248.661 46.5841 247.053 46.9121 245.149 46.9121H239.293ZM241.789 44.8241H245.005C247.181 44.8241 248.797 44.2961 249.853 43.2401C250.925 42.1841 251.461 40.5841 251.461 38.4401C251.461 36.2961 250.925 34.7041 249.853 33.6641C248.797 32.6081 247.181 32.0801 245.005 32.0801H241.789V44.8241Z" fill="white"/>
</svg>
